<?xml version="1.0" encoding="utf-8"?>
<!-- Generator: Adobe Illustrator 26.1.0, SVG Export Plug-In . SVG Version: 6.00 Build 0)  -->
<svg version="1.1" id="Layer_2" xmlns="http://www.w3.org/2000/svg" xmlns:xlink="http://www.w3.org/1999/xlink" x="0px" y="0px"
	 viewBox="0 0 876.28 499.89" style="enable-background:new 0 0 876.28 499.89;" xml:space="preserve">
<style type="text/css">
	.st0{fill:#231F20;}
	.st1{fill:#519FD7;}
	.st2{fill:#ED1C24;}
	.st3{fill:#5BA3D9;}
</style>
<path class="st0" d="M633.5,152.5c-1-6-7-20-9-23c-1-4-10-28-17-40s-20-18-24-19s-10-2-12-2c-1-7-20-9-31-10s-18,0-22,2s-14,9-21,15
	s-13,10-18,12s-15,6-23,12s-13,19-14,25s-1,23-1,23h-7c0,0-1-10-2-14s-4-15-9-21s-13-12-17-14s-11-7-17-11s-16-12-23-18s-13-7-22-8
	s-24,1-32,3S303,71,302,71c-24,3-35,21-41,32s-10,27-12,33s-6,20-4,33s6,20,7,24s1,8,1,8c-13,9-14,28-10,42c14,33,63,30,63,30
	s12,13,20,22c9,10,19,9,31,9c-2,11,8,20,16,28c7.02,7.02,41.74,33.27,50.16,39.61C424.34,372.5,425,373,425,373
	c1.5,0.5,1.5-5.5,1.5-6.5s1-24,1-30s6-33,10-42c2,2,5,11,6,16s5,29,5,34s-1,19-2,22s2,5,4,4s19-16,26-22s32-27,36-31s4-12,4-17
	c4,0,12,1,16,0s11-5,15-9s16-17,20-20s8-5,12-6s7-2,13-7s14-17,18-24s9-16,11-22c1-5,0-10,0-14c6-4,10-10,12-17
	S634.5,158.5,633.5,152.5z M442,203c-1,1-3-6-4-7s-5-4-4-6c0,0,7-1,10-1C445,192,443,202,442,203z M587.53,211.16
	c-0.14,0.66-0.52,0.98-0.81,1.13c-0.35,0.18-0.92,0.29-1.64-0.19c-0.39-0.24-0.75-0.67-1.07-1.28c-1.5-2.9-2.16-8.99-2-18.55
	c-0.67,3.64-1.18,7.92-1.52,12.79c-0.13,1.72-0.34,2.92-0.63,3.68c-0.32,0.81-0.76,1.36-1.32,1.65c-0.62,0.32-1.25,0.28-1.82-0.1
	c-0.35-0.23-0.63-0.56-0.84-0.98c-1.23-2.37-1.89-6.25-2-11.78c-0.05,0.36-0.1,0.72-0.15,1.08c-0.46,3.9-0.67,7.83-0.63,11.67
	c0.03,1.85,0.16,4.3,0.38,7.28c0.15,1.78-0.22,2.87-1.13,3.34c-0.17,0.08-0.34,0.13-0.51,0.13c-0.17,0-0.34-0.04-0.51-0.12
	c-0.24-0.09-0.45-0.29-0.59-0.55c-0.11-0.22-0.24-0.66-0.35-2.36c-0.2-2.66-0.31-4.62-0.31-5.83c-0.02-6.19,0.59-12.41,1.8-18.49
	c0.52-2.59,0.9-4.25,1.18-5.1c0.34-0.99,0.75-1.6,1.25-1.86c0.36-0.18,0.77-0.21,1.24-0.08c0.53,0.14,0.93,0.45,1.16,0.9
	c0.23,0.45,0.3,1.21,0.22,2.39c-0.22,2.97-0.18,6.2,0.11,9.61c0.17,1.71,0.39,3.24,0.67,4.6c0.07-0.68,0.15-1.47,0.24-2.36
	c0.23-2.39,0.76-5.96,1.55-10.61c0.46-2.71,0.96-5.07,1.47-7c0.34-1.32,0.85-2.14,1.54-2.5c0.44-0.23,0.92-0.26,1.38-0.1
	c0.39,0.11,0.72,0.38,0.92,0.78c0.25,0.49,0.35,1.29,0.31,2.5c0,0.21-0.04,1.31-0.12,3.28c-0.13,3.51-0.17,6-0.11,7.42
	c0.14,3.93,0.45,7.23,0.9,9.81c0.27,1.49,0.56,2.54,0.86,3.12c0.06,0.12,0.13,0.23,0.22,0.35c0.32,0.47,0.5,0.74,0.55,0.83
	C587.62,210.1,587.67,210.61,587.53,211.16z M608.65,198.84c-0.09,0.67-0.45,1.02-0.73,1.19c-0.34,0.21-0.9,0.37-1.65-0.07
	c-0.41-0.21-0.8-0.61-1.16-1.2c-1.71-2.78-2.84-8.8-3.42-18.34c-0.39,3.68-0.57,7.98-0.54,12.87c0,1.72-0.11,2.93-0.35,3.71
	c-0.25,0.83-0.65,1.42-1.19,1.75c-0.59,0.37-1.22,0.38-1.82,0.04c-0.36-0.21-0.67-0.51-0.92-0.91c-1.4-2.27-2.36-6.09-2.9-11.59
	c-0.03,0.36-0.05,0.72-0.07,1.09c-0.16,3.92-0.07,7.86,0.26,11.68c0.17,1.83,0.49,4.26,0.94,7.23c0.28,1.76,0,2.88-0.87,3.42
	c-0.18,0.11-0.38,0.17-0.58,0.17c-0.14,0-0.29-0.03-0.44-0.08c-0.24-0.07-0.47-0.25-0.63-0.5c-0.13-0.21-0.29-0.64-0.53-2.33
	c-0.41-2.63-0.66-4.58-0.76-5.79c-0.49-6.17-0.36-12.42,0.38-18.57c0.32-2.61,0.58-4.31,0.79-5.17c0.26-1.02,0.62-1.65,1.11-1.95
	c0.34-0.21,0.76-0.27,1.23-0.17c0.53,0.1,0.96,0.38,1.22,0.81c0.26,0.43,0.39,1.18,0.4,2.37c0.01,2.97,0.29,6.19,0.84,9.58
	c0.3,1.69,0.64,3.21,1.02,4.54c0.02-0.69,0.04-1.48,0.05-2.37c0.05-2.4,0.3-6,0.74-10.69c0.26-2.74,0.57-5.13,0.93-7.1
	c0.24-1.35,0.68-2.2,1.35-2.61c0.42-0.26,0.9-0.33,1.36-0.21c0.39,0.08,0.74,0.33,0.98,0.71c0.29,0.47,0.45,1.26,0.5,2.47
	c0.01,0.21,0.06,1.31,0.13,3.28c0.14,3.48,0.29,5.98,0.45,7.41c0.44,3.91,1,7.17,1.65,9.71c0.39,1.47,0.76,2.49,1.1,3.05
	c0.07,0.11,0.15,0.22,0.24,0.33c0.36,0.44,0.55,0.7,0.61,0.78C608.65,197.78,608.74,198.28,608.65,198.84z M624.13,188.23
	c-0.42,0.32-0.97,0.38-1.64,0.16c-0.45-0.16-0.81-0.41-1.09-0.76c-0.51-0.66-1.42-2.6-3.48-11.71c-1.48,1.82-2.91,3.87-4.24,6.1
	c0.03,0.16,0.07,0.33,0.11,0.5c0.69,3.82,1.74,7.15,3.11,9.94c0.63,1.19,0.16,1.81-0.18,2.07c-0.2,0.16-0.52,0.32-0.95,0.32
	c-0.16,0-0.34-0.02-0.53-0.07c-0.44-0.11-0.79-0.33-1.05-0.66c-0.17-0.21-0.46-0.68-1.09-2.24c-0.46-1.14-0.82-2.18-1.08-3.1
	c-0.1-0.34-0.36-1.36-0.78-3.05c-0.14,0.24-0.29,0.42-0.47,0.56c-0.21,0.17-0.97,0.62-1.79-0.45c-0.36-0.47-0.45-1.01-0.24-1.56
	c0.11-0.32,0.37-0.8,0.78-1.44c0.34-0.54,0.61-1,0.82-1.35c-0.08-0.56-0.26-1.55-0.52-2.96c-0.06-0.3-0.17-1.16-0.34-2.62
	c-0.5-4.11-0.97-6.99-1.39-8.55c-0.51-1.98-0.58-2.46-0.58-2.67c0-0.75,0.35-1.17,0.64-1.4c0.72-0.56,1.48-0.47,2.03,0.24
	c0.58,0.75,1.48,2.87,2.49,12.54c0.07,0.63,0.15,1.2,0.24,1.71c1.57-2.14,3.02-4.1,4.33-5.8c-0.5-3.08-0.91-6.62-1.24-10.53
	c-0.09-0.92-0.13-1.16-0.15-1.22c-0.13-0.89,0.02-1.49,0.47-1.83c0.37-0.28,0.81-0.37,1.27-0.26c0.38,0.1,0.68,0.3,0.9,0.59
	c0.35,0.45,0.59,1.21,0.74,2.33c0.04,0.24,0.12,1.23,0.27,3.01c0.19,2.27,0.37,3.97,0.53,5.08c1.34-1.02,2.04-0.68,2.4-0.22
	c0.29,0.37,0.38,0.86,0.28,1.45c-0.07,0.47-0.29,0.85-0.63,1.12l-0.61,0.47c-0.14,0.11-0.38,0.32-0.78,0.76
	c0.83,5.44,2.04,9.9,3.6,13.27C624.75,187.04,624.7,187.79,624.13,188.23z"/>
<g>
	<path class="st0" d="M312.92,447.26h-6.48v-16.9l-11.56,16.47l-11.56-16.47v16.9h-6.48V419.5h6.8l11.23,16.04l11.29-16.04h6.75
		V447.26z"/>
	<path class="st0" d="M356.71,447.26h-6.48v-8.8h-17.06v-6.48h17.06v-3.89c0-1.4-0.47-2.11-1.4-2.11h-18.36
		c-0.9,0-1.35,0.7-1.35,2.1v19.18h-6.48v-19.19c0-2.33,0.73-4.35,2.19-6.04c1.46-1.69,3.34-2.53,5.64-2.53h18.36
		c2.34,0,4.24,0.84,5.7,2.53c1.46,1.69,2.19,3.7,2.19,6.04V447.26z"/>
	<path class="st0" d="M399.05,447.26h-8.86l-13.88-15.55H393c1.19,0,1.78-0.95,1.78-2.86s-0.59-2.86-1.78-2.86h-20.09v21.28h-6.48
		V419.5h26.95c2.48,0,4.45,0.97,5.89,2.92c1.33,1.76,2,3.91,2,6.43c0,2.52-0.67,4.66-2,6.43c-1.44,1.94-3.4,2.92-5.89,2.92h-2.48
		L399.05,447.26z"/>
	<path class="st0" d="M442.52,425.98h-12.53v21.28h-6.48v-21.28h-12.53v-6.48h31.54V425.98z"/>
	<path class="st0" d="M458.34,447.26h-6.48V419.5h6.48V447.26z"/>
	<path class="st0" d="M502.13,447.26h-6.48v-8.8h-17.06v-6.48h17.06v-3.89c0-1.4-0.47-2.11-1.4-2.11h-18.36
		c-0.9,0-1.35,0.7-1.35,2.1v19.18h-6.48v-19.19c0-2.33,0.73-4.35,2.19-6.04c1.46-1.69,3.34-2.53,5.64-2.53h18.36
		c2.34,0,4.24,0.84,5.7,2.53c1.46,1.69,2.19,3.7,2.19,6.04V447.26z"/>
	<path class="st0" d="M541.5,447.26h-6.48l-16.69-18.68v18.68h-6.48V419.5h6.48l16.69,18.58V419.5h6.48V447.26z"/>
</g>
<g>
	<path class="st0" d="M74.95,419.5h3.56l14.47,21.6l14.53-21.6h3.51v27.81h-3.24v-22.46l-14.8,21.98l-14.8-21.98v22.46h-3.24V419.5z
		"/>
	<path class="st0" d="M122.37,419.5h3.24v27.81h-3.24V419.5z"/>
	<path class="st0" d="M148.66,433.27l-13.28-13.77h4.43l11.12,11.34L162,419.5h4.48l-13.34,13.77l13.66,14.04h-4.48l-11.39-11.61
		l-11.45,11.61h-4.43L148.66,433.27z"/>
	<path class="st0" d="M176.26,419.5h29.65v3.24H179.5v21.33h26.41v3.24h-29.65V419.5z M183.55,431.76h20.84V435h-20.84V431.76z"/>
	<path class="st0" d="M217.24,426.9h3.24v17.17h20.36c3.29,0,5.78-2.32,5.78-5.56V428.3c0-3.19-2.54-5.56-5.78-5.56h-23.6v-3.24
		h23.6c4.97,0,9.02,3.83,9.02,8.8v10.21c0,5.02-4,8.8-9.02,8.8h-23.6V426.9z"/>
</g>
<g>
	<path class="st0" d="M565.95,419.5h3.24v12.26h25.6V419.5h3.24v27.81h-3.24V435h-25.6v12.31h-3.24V419.5z"/>
	<path class="st0" d="M609.37,419.5h29.65v3.24h-26.41v21.33h26.41v3.24h-29.65V419.5z M616.66,431.76h20.84V435h-20.84V431.76z"/>
	<path class="st0" d="M650.36,428.08c0-4.59,3.13-8.59,7.83-8.59h18.36c4.64,0,7.88,4,7.88,8.59v19.22h-3.24v-10.48h-23.54v-3.24
		h23.54v-5.51c0-2.97-1.89-5.35-4.64-5.35h-18.36c-2.81,0-4.59,2.38-4.59,5.35v19.22h-3.24V428.08z"/>
	<path class="st0" d="M695.77,419.5h23.65c4.64,0,7.88,3.4,7.88,8.59c0,5.18-3.24,8.53-7.88,8.53h-4.37l10.69,10.69h-4.59
		l-13.72-13.93h11.88c2.81,0,4.75-1.84,4.75-5.29s-1.94-5.35-4.75-5.35h-20.3v24.57h-3.24V419.5z"/>
	<path class="st0" d="M737.03,419.5h31.54v3.24h-31.54V419.5z M751.17,426.9h3.24v20.41h-3.24V426.9z"/>
	<path class="st0" d="M779.63,444.07h22.3c2.75,0,4.64-1.67,4.64-4.54c0-2.86-2-4.54-4.64-4.54h-15.77c-4.54,0-7.88-2.97-7.88-7.72
		c0-4.59,3.24-7.78,7.88-7.78h22.36v3.24h-22.36c-2.75,0-4.64,1.73-4.64,4.54c0,2.86,1.89,4.48,4.64,4.48h15.77
		c4.54,0,7.88,3.02,7.88,7.78c0,4.59-3.35,7.78-7.88,7.78h-22.3V444.07z"/>
</g>
<path class="st1" d="M311.5,274.5c0,0,83,3,119-8c0,3,2,21,6,24c-2,4-12,33-12,48s0,30,0,30s-29-20-39-29s-30-23-26-35
	c2-5,7-13,34-3c0,2,0,20,5,22c0,0,1-4,0-6s-4-14,1-17s8-5,12-5c0-2-7-3-9-1s-6,5-7,5s-8-3-11-4s-9-2-12-2s-11,1-14,7
	c-3,0-10.98,0.89-16,0c-8.5-1.5-13-7-19-13S311.5,274.5,311.5,274.5z"/>
<path class="st2" d="M434.5,266.5c0,0-2,14,10,39c3,15,7,38,6,57c2,0,5,0,8-3s24-16,41-33c5-5,16-13,15-23c-1-2-2-7-7-8
	c-2-1-10-1-14,0s-13,3-13,3c1,4,1,18-5,22c0,0-1-1,0-5s3-9,2-16c-5-4-10-7-15-7c1-1,3-2,5-2s8,3,10,6c3-1,9-3,12-4s9-2,13-2
	s10,1,13,7c1,1,5,2,8,2s10,0,14-3s13-10,18-17c2-3,15-14,21-16c4-1,12-3,18-10c4-4,8-9,8-12c-2-3-7-8-13-8s-20-1-25,2c0,3-1,9-4,12
	s-10,10-11,10s2-4,3-5s9-8,9-13c0-3-1-7-3-7c-7,3-62,22-98,29C445.48,264.42,434.5,266.5,434.5,266.5z"/>
<path class="st2" d="M561.5,230.5l10-4c0,0,2,2,3,4c-3,1-10,3-11,3S561.5,233.5,561.5,230.5z"/>
<path class="st2" d="M575.5,224.5c0,0,37-18,43-23c2,0,2,9,1,12s-12,23-14,26c0,0-2-1-3-3c0,0-5-5-12-6s-13-1-13-1
	S575.5,226.5,575.5,224.5z"/>
<path class="st2" d="M606.5,93.5c-7-14-21-19-27-21s-9-2-12,0s-11,10-13,14s-2,8-1,11c1,2,6,5,12,5s7-8,7-10s1-2,2-2c2,0,3,5,2,5
	s-2,0-2-1c-1,0-1,5-2,6s-2,4-5,5s-8-2-9-2c-1,1,2,3,5,7s7,8,10,11s10,9,12,10s8,1,11,0s3-6,3-7s1-1,1,1c0,5-1,8-4,9s-9,0-10,0
	c0,3-2,7-5,10s-9,3-11,3s-3-2-2-2s7-1,9-2s5-6,5-9s-2-4-4-5s-5-5-8-7s-10-10-14-15s-6-9-7-15s7-14,10-17s8-5,9-7s-6-4-11-5
	s-20-3-27-3s-12,2-16,5s-16,12-19,15s-9,7-14,9s-13,6-15,7s-4,4-4,4c9,4,23,11,30,16s12,10,12,16c0,7-4,11-8,14s-13,7-18,8
	s-8,0-12-2s-8-9-6-15s6-7,7-6c-4,1-3,2-4,4c-3,12,3,15,8,17c14,0,17-5,23-9s8-6,5-14s-18-16-24-20s-16-7-16-7s-6,5-11,18
	c-3,8-6,31-6,39s1,21,2,24s3,7,2,12s-6,23-6,23c1,0,5,0,12-1s24-4,31-5s18-3,20-4c-2-9-7-12-10-12c-5,1-8,5-10,7c-2,1-3,1-4,1
	c2-5,10-10,13-11s8,1,11,4s3,10,3,10c29-7,58-18,66-24c0-11-3-13-6-14s-5,1-6,2s-2,0-2-1c2-4,9-4,11-3c2,2,3,2,3,2c2-7,7-6,9-5
	s0,3-1,3s-3,0-4,1s-1,8-1,9s1,4,2,4c2-1,10-6,20-14s18-20,20-24s4-8,4-14C619.5,118.5,613.5,107.5,606.5,93.5z M530.73,117.33
	c-0.17,0.11-0.36,0.17-0.55,0.17c-0.32,0-0.64-0.16-0.83-0.45c-0.31-0.46-0.18-1.08,0.28-1.39c3.19-2.12,3.55-3.97,3.56-5.11
	c-0.26-1.08-4.88-4.82-7.65-7.05c-2.05-1.65-3.98-3.21-5.06-4.3c-0.66-0.66-1-1.53-0.96-2.52c0.12-3.68,5.41-8.41,6.01-8.94
	c0.42-0.36,1.05-0.32,1.41,0.09c0.36,0.42,0.32,1.05-0.09,1.41c-1.46,1.28-5.25,5.11-5.33,7.5c-0.01,0.44,0.11,0.76,0.38,1.04
	c1.01,1.01,2.9,2.54,4.91,4.16c5.7,4.6,8.39,6.95,8.39,8.55C535.17,113.1,533.72,115.34,530.73,117.33z"/>
<path class="st3" d="M358.5,225.5c0,0,3-7,10-7s12,6,12,6L358.5,225.5z"/>
<path class="st1" d="M440.5,206.5c-1-1-4-11-7-12s-7-1-10,0c1-1,0.5-3.5,0.5-3.5s18-7,13-25s-5-36-15-49
	c-2.92-3.79-5.64-6.06-8.3-8.78c-4.37,3.22-18.31,12.35-23.2,15.28c-5,3-15,8-19,11s-1,9,0,10s4,4,12,8s13,5,21,3c7-1,5-14,4-16
	s-4-3-3-4s3,0,4,2c3,5,2,9,2,13c-1,8-12,10-17,9s-27-10-28-19s11-13,18-17c6.48-3.7,24.5-15.53,27.16-17.28
	c-4.18-3.93-9.94-8.3-21.66-15.22c-13-9-23-20-33-24s-17-4-26-3s-21,2-25,6c1,2,10.5,9.5,13.5,13.5s8,15-3,28c-9,11-17,18-20,20
	s-10,3-3,13c4,3,8,4,12,4c1,2-1,2-2,2s-8,1-13-5c-3-4-3-9-3-9c-2,1-9,1-11,0s-3-5-3-7s2-4,2-2s0,7,4,7s6,1,8,0s9-7,13-10
	s13-12,14-14s3-5,0-4s-4,1-7,1s-6-4-7-8c0-2-1-3-2-2s-1-2,1-3s3,2,3,3s2,8,7,8s12-2,12-8c0-5-2-11-9-17c-6-6-9-7-12-7s-13,1-22,10
	s-17,19-24,41c-5,16-7,27-8,34s2,22,4,25c1-1,2-5,3-7s6-7,9-6s7,4,11,8s11,11,13,13s3,3,5,3s4-3,5-8s3-12,1-16c-1,0-3,0-5,0
	s-1-3,2-4s6,2,6,3s1,3,2,2s2-2,5-2s8,3,8,5c-1,0-1-1-4-2s-8,0-9,3s-1,12-2,15s-3,8-9,8c-5-1-8-5-11-8s-11-10-12-11s-4-5-7-4
	s-7,4-8,7s-2,6-1,8s3,17,3,20s-1,8,5,9s29,3,30,3s4-2,8,1c5,0,39,1,42,1s14,0,14,0s3-8,12-10c1-4,2-16,11-18s17,10,17,10s1,2-2,0
	s-10-9-14-7s-8,9-8,16c3,0,11,2,17,8c6,0,48-4,48-4S441.5,207.5,440.5,206.5z M354.21,102.21c-1.09,1.09-3.02,2.65-5.06,4.3
	c-2.76,2.23-7.39,5.97-7.65,7.05c0,1.15,0.37,2.99,3.56,5.11c0.46,0.31,0.58,0.93,0.28,1.39c-0.19,0.29-0.51,0.45-0.83,0.45
	c-0.19,0-0.38-0.05-0.55-0.17c-2.99-1.99-4.45-4.23-4.45-6.83c0-1.6,2.69-3.95,8.39-8.55c2-1.62,3.9-3.15,4.91-4.16
	c0.27-0.27,0.39-0.6,0.38-1.04c-0.08-2.39-3.87-6.23-5.33-7.5c-0.42-0.36-0.46-1-0.09-1.41c0.36-0.42,0.99-0.46,1.41-0.09
	c0.6,0.53,5.89,5.26,6.01,8.94C355.2,100.67,354.87,101.54,354.21,102.21z"/>
</svg>
